Hanif_Medium_5_0_grf.mot
version=1
nRows=59
nColumns=19
inDegrees=yes
endheader
time	right_ground_force_vx	right_ground_force_vy	right_ground_force_vz	right_ground_force_px	right_ground_force_py	right_ground_force_pz	right_ground_torque_x	right_ground_torque_y	right_ground_torque_z	left_ground_force_vx	left_ground_force_vy	left_ground_force_vz	left_ground_force_px	left_ground_force_py	left_ground_force_pz	left_ground_torque_x	left_ground_torque_y	left_ground_torque_z
1.350000	-12.083000	341.882000	21.390500	0.225351	0.000000	-1.422100	-28.807100	1.934990	8.885470	5.780080	327.338000	-15.975600	0.241010	0.000000	-0.988038	27.698700	-7.626000	13.804400
1.355000	-12.489300	343.025000	20.308000	0.225248	0.000000	-1.421660	-29.061200	1.983940	8.870970	6.036200	328.121000	-15.891000	0.240964	0.000000	-0.987554	27.599700	-7.711740	13.821500
1.360000	-11.949900	344.093000	20.196000	0.225026	0.000000	-1.422060	-29.006200	1.986550	8.816530	6.321460	330.663000	-15.368800	0.241213	0.000000	-0.987166	27.681700	-7.696360	13.990000
1.365000	-12.440800	344.452000	18.786000	0.223913	0.000000	-1.422030	-29.052400	2.052180	8.430320	6.500090	329.914000	-15.908800	0.241033	0.000000	-0.987607	27.758900	-7.728930	13.914900
1.370000	-11.465000	344.804000	18.836600	0.224005	0.000000	-1.422210	-29.007600	2.086640	8.468120	5.730920	331.382000	-14.461000	0.241925	0.000000	-0.988304	28.133400	-7.686900	14.233800
1.375000	-11.282500	343.294000	18.293100	0.223670	0.000000	-1.421900	-28.983600	2.005210	8.306380	5.270550	332.440000	-14.691900	0.240911	0.000000	-0.987451	27.951100	-7.656890	13.945900
1.380000	-10.836900	342.103000	17.827600	0.223360	0.000000	-1.421500	-29.012900	1.959530	8.163000	5.203480	329.248000	-13.973400	0.242382	0.000000	-0.988800	28.124600	-7.757820	14.289500
1.385000	-10.282200	341.407000	18.161500	0.222490	0.000000	-1.421570	-28.928200	2.166780	7.861420	5.025010	331.099000	-14.039100	0.242399	0.000000	-0.988464	28.179500	-7.571630	14.366300
1.390000	-9.686440	340.943000	17.073000	0.221468	0.000000	-1.422310	-28.630000	2.180690	7.487630	3.990820	329.662000	-12.730200	0.243123	0.000000	-0.989662	28.474400	-7.630250	14.518600
1.395000	-9.129770	340.219000	17.235000	0.221803	0.000000	-1.422240	-28.587100	2.179190	7.585830	4.078350	332.573000	-12.387400	0.242088	0.000000	-0.988568	28.362200	-7.603620	14.287100
1.400000	-8.954390	338.322000	16.413300	0.221116	0.000000	-1.422010	-28.503900	2.279840	7.308030	4.079870	331.844000	-12.469500	0.242640	0.000000	-0.988773	28.367500	-7.590440	14.441900
1.405000	-8.321170	333.917000	16.122600	0.220962	0.000000	-1.420980	-28.471900	2.267670	7.159600	3.913040	331.134000	-12.096000	0.242500	0.000000	-0.989658	28.603600	-7.607070	14.357600
1.410000	-7.156190	333.851000	15.727200	0.219792	0.000000	-1.421730	-28.204800	2.430310	6.765110	4.210490	330.074000	-11.935800	0.242796	0.000000	-0.990393	28.746200	-7.678420	14.408600
1.415000	-6.786160	332.001000	15.265500	0.219358	0.000000	-1.422360	-27.836000	2.402580	6.576970	4.919510	331.512000	-12.045400	0.242694	0.000000	-0.990237	28.803200	-7.799340	14.440100
1.420000	-5.682480	328.588000	15.397300	0.219183	0.000000	-1.421440	-27.840800	2.462200	6.454890	5.103920	333.709000	-12.137200	0.242887	0.000000	-0.989816	28.849100	-7.903450	14.601900
1.425000	-6.231820	327.099000	14.414600	0.218602	0.000000	-1.421970	-27.549400	2.474560	6.228540	5.630300	334.432000	-12.169000	0.242306	0.000000	-0.989518	28.802300	-7.811410	14.433700
1.430000	-5.255060	326.703000	13.938800	0.217910	0.000000	-1.422500	-27.331100	2.577340	5.990600	5.808150	332.203000	-12.447000	0.242343	0.000000	-0.989397	28.564500	-7.794970	14.359600
1.435000	-4.385220	325.513000	12.830700	0.217124	0.000000	-1.422460	-27.235500	2.607890	5.700150	5.428280	331.089000	-13.230700	0.242714	0.000000	-0.989613	28.547000	-7.801370	14.457800
1.440000	-4.731510	322.194000	12.468900	0.216616	0.000000	-1.422130	-27.072300	2.747610	5.483370	5.166310	331.094000	-12.956200	0.242708	0.000000	-0.989705	28.583900	-7.818080	14.450300
1.445000	-4.490850	322.519000	11.465100	0.217154	0.000000	-1.422030	-27.129000	2.722300	5.649800	4.913880	330.007000	-12.137900	0.242878	0.000000	-0.989732	28.504900	-7.783200	14.439900
1.450000	-4.239530	320.645000	10.636700	0.216681	0.000000	-1.422420	-26.843800	2.750450	5.457530	4.726730	330.386000	-12.395800	0.243036	0.000000	-0.989347	28.414700	-7.784300	14.515100
1.455000	-4.051860	318.430000	10.439100	0.216061	0.000000	-1.421860	-26.834700	2.763000	5.221560	3.932080	328.212000	-11.831800	0.243238	0.000000	-0.990399	28.590900	-7.718950	14.475500
1.460000	-4.144480	315.825000	9.721040	0.215944	0.000000	-1.421900	-26.604100	2.730300	5.134890	4.121990	328.918000	-11.737800	0.244023	0.000000	-0.989911	28.487900	-7.728400	14.761500
1.465000	-3.787140	316.559000	9.623940	0.216213	0.000000	-1.423030	-26.302000	2.724880	5.229550	3.596950	326.735000	-11.274400	0.243788	0.000000	-0.990691	28.564700	-7.724180	14.579800
1.470000	-4.432670	316.200000	9.274140	0.215274	0.000000	-1.423010	-26.286700	2.703880	4.923870	4.135670	326.750000	-11.197200	0.244353	0.000000	-0.989803	28.262800	-7.765840	14.763100
1.475000	-4.364450	316.198000	8.635690	0.215305	0.000000	-1.422770	-26.361700	2.665280	4.925790	3.252740	326.766000	-10.797600	0.244514	0.000000	-0.989688	28.247900	-7.715890	14.807100
1.480000	-5.251900	314.760000	8.565580	0.215625	0.000000	-1.422600	-26.305200	2.716900	5.007490	3.517310	325.297000	-10.626900	0.244625	0.000000	-0.989154	27.939300	-7.802640	14.776800
1.485000	-5.073090	313.632000	8.462380	0.215567	0.000000	-1.422150	-26.351000	2.755350	4.971560	3.428450	324.203000	-10.892100	0.244617	0.000000	-0.990408	28.253800	-7.752440	14.731600
1.490000	-4.901760	313.587000	8.186570	0.215870	0.000000	-1.421520	-26.541400	2.621370	5.059140	3.261250	326.039000	-10.169000	0.244663	0.000000	-0.989649	28.172100	-7.699880	14.807400
1.495000	-4.386850	316.149000	7.812900	0.215829	0.000000	-1.421750	-26.680300	2.712660	5.083430	2.809060	325.667000	-10.417900	0.244619	0.000000	-0.990061	28.283400	-7.836870	14.788700
1.500000	-4.388940	316.524000	7.902390	0.214923	0.000000	-1.421850	-26.681400	2.727310	4.803860	2.469950	326.428000	-9.499010	0.245155	0.000000	-0.989870	28.296200	-7.791140	14.972800
1.505000	-4.030430	314.270000	7.341810	0.215336	0.000000	-1.420820	-26.810800	2.741810	4.894340	2.369480	324.975000	-9.499280	0.244991	0.000000	-0.989172	27.946400	-7.633580	14.850500
1.510000	-4.135300	318.776000	7.722820	0.215492	0.000000	-1.422770	-26.572000	2.754000	5.016540	2.024470	324.961000	-9.666600	0.245170	0.000000	-0.990866	28.503700	-7.634530	14.913200
1.515000	-4.411600	318.375000	7.539190	0.215601	0.000000	-1.421590	-26.919500	2.770930	5.044290	1.577350	326.078000	-9.020140	0.245141	0.000000	-0.989830	28.275400	-7.581810	14.936600
1.520000	-4.313150	317.614000	7.710700	0.215776	0.000000	-1.420250	-27.280100	2.693320	5.087850	1.150890	323.126000	-9.176170	0.245833	0.000000	-0.992330	28.836600	-7.572250	15.034000
1.525000	-5.056080	318.767000	7.283940	0.215387	0.000000	-1.421750	-26.907700	2.699170	4.978800	0.957832	324.626000	-9.077120	0.246109	0.000000	-0.990648	28.429900	-7.506470	15.187600
1.530000	-4.043760	318.017000	7.624960	0.215804	0.000000	-1.422100	-26.720000	2.637860	5.100060	1.046920	324.250000	-8.810790	0.245834	0.000000	-0.989942	28.165900	-7.485090	15.073500
1.535000	-4.696180	319.875000	7.457830	0.215126	0.000000	-1.421850	-26.964000	2.757850	4.914530	0.534999	322.425000	-8.331830	0.246782	0.000000	-0.991130	28.402300	-7.495900	15.286300
1.540000	-4.318610	316.516000	7.260280	0.216097	0.000000	-1.421120	-26.908200	2.671390	5.167480	0.267087	323.902000	-7.964170	0.246451	0.000000	-0.990504	28.336200	-7.474990	15.237900
1.545000	-4.780390	317.626000	7.181730	0.215094	0.000000	-1.420820	-27.105300	2.741580	4.867840	-0.017079	322.796000	-8.233110	0.245936	0.000000	-0.990500	28.245000	-7.469250	15.028100
1.550000	-4.881920	317.625000	6.820610	0.215984	0.000000	-1.420710	-27.139400	2.654270	5.145040	0.003353	321.718000	-7.862000	0.246988	0.000000	-0.990907	28.281300	-7.394280	15.306700
1.555000	-5.161700	318.028000	6.471630	0.216444	0.000000	-1.421990	-26.771800	2.721150	5.295900	-0.072878	322.469000	-7.496570	0.247020	0.000000	-0.990960	28.366200	-7.358150	15.341800
1.560000	-5.134550	315.065000	6.824970	0.216326	0.000000	-1.421140	-26.787200	2.651390	5.212980	-0.441148	320.985000	-7.398480	0.246576	0.000000	-0.990859	28.212000	-7.354040	15.128500
1.565000	-5.133040	316.180000	7.014840	0.216264	0.000000	-1.422060	-26.593000	2.706460	5.214580	-0.794357	320.237000	-7.473030	0.246752	0.000000	-0.991683	28.418600	-7.321590	15.152300
1.570000	-5.296750	312.458000	6.918090	0.216032	0.000000	-1.420910	-26.642100	2.750920	5.082580	-0.091139	321.702000	-7.862290	0.246611	0.000000	-0.990898	28.279100	-7.320670	15.183000
1.575000	-6.119490	313.229000	6.761840	0.215647	0.000000	-1.421500	-26.530800	2.588710	4.970380	0.266629	319.137000	-7.964070	0.247014	0.000000	-0.990238	27.834300	-7.429930	15.198100
1.580000	-6.383110	311.739000	6.671010	0.216061	0.000000	-1.421120	-26.527700	2.657030	5.077580	-0.102998	316.536000	-8.049790	0.246082	0.000000	-0.991102	27.889900	-7.365150	14.783600
1.585000	-6.842760	312.170000	6.334000	0.215748	0.000000	-1.423070	-25.958600	2.531710	4.980820	0.163316	316.528000	-8.059950	0.246005	0.000000	-0.990642	27.737200	-7.242450	14.755300
1.590000	-7.111410	312.148000	6.427720	0.215191	0.000000	-1.422590	-26.112200	2.597580	4.809570	0.534287	313.244000	-7.889300	0.246281	0.000000	-0.991256	27.632600	-7.297950	14.689100
1.595000	-6.025370	311.732000	6.756700	0.215726	0.000000	-1.421580	-26.379500	2.589250	4.971690	1.071110	312.875000	-8.084150	0.246648	0.000000	-0.990783	27.439100	-7.283430	14.790500
1.600000	-6.434600	306.973000	6.767890	0.215893	0.000000	-1.422090	-25.827300	2.591120	4.950160	0.713176	309.570000	-7.715840	0.246349	0.000000	-0.990678	27.124700	-7.331710	14.538300
1.605000	-6.069230	307.694000	7.211560	0.215505	0.000000	-1.421550	-26.047700	2.614120	4.846810	0.867107	312.859000	-8.176170	0.245734	0.000000	-0.989341	26.991500	-7.290710	14.506700
1.610000	-5.726590	309.876000	7.210570	0.215049	0.000000	-1.421990	-26.093800	2.767830	4.741540	1.522830	310.638000	-7.929020	0.245775	0.000000	-0.991430	27.433000	-7.272920	14.410800
1.615000	-5.620130	311.753000	8.113520	0.214310	0.000000	-1.422220	-26.178400	2.757970	4.548390	1.413150	311.735000	-8.560400	0.245555	0.000000	-0.991191	27.458000	-7.253810	14.407400
1.620000	-6.240520	310.705000	8.136310	0.215038	0.000000	-1.423400	-25.732200	2.767780	4.761600	1.396950	314.306000	-8.919510	0.245790	0.000000	-0.990028	27.319800	-7.292460	14.607100
1.625000	-5.765070	308.835000	8.395100	0.214530	0.000000	-1.423010	-25.693300	2.796440	4.579810	1.677920	311.408000	-8.746950	0.246262	0.000000	-0.990528	27.216700	-7.210380	14.616200
1.630000	-5.462660	308.422000	9.109830	0.214947	0.000000	-1.422470	-25.822600	2.788920	4.710000	1.828930	312.103000	-9.753870	0.244966	0.000000	-0.990945	27.404100	-7.179030	14.267200
1.635000	-5.210030	310.289000	9.192880	0.214505	0.000000	-1.421820	-26.176300	2.831820	4.601710	1.650320	313.149000	-9.935020	0.244392	0.000000	-0.991621	27.711700	-7.276860	14.141400
1.640000	-5.581300	312.175000	9.403680	0.214499	0.000000	-1.423600	-25.785200	2.866940	4.630610	2.797560	311.295000	-10.869100	0.244979	0.000000	-0.991723	27.551100	-7.318740	14.265600
